<svg width="32" height="32" viewBox="0 0 32 32" fill="none" xmlns="http://www.w3.org/2000/svg">
<rect x="0.346491" y="0.346613" width="31.307" height="31.307" rx="15.6535" fill="#92877B"/>
<rect x="0.346491" y="0.346613" width="31.307" height="31.307" rx="15.6535" stroke="#92877B" stroke-width="0.692982"/>
<path d="M15.9987 9.3595C12.332 9.3595 9.33203 12.3528 9.33203 16.0395C9.33203 19.3728 11.772 22.1395 14.9587 22.6395V17.9728H13.2654V16.0395H14.9587V14.5662C14.9587 12.8928 15.952 11.9728 17.4787 11.9728C18.2054 11.9728 18.9654 12.0995 18.9654 12.0995V13.7462H18.1254C17.2987 13.7462 17.0387 14.2595 17.0387 14.7862V16.0395H18.892L18.592 17.9728H17.0387V22.6395C18.6097 22.3914 20.0402 21.5898 21.072 20.3795C22.1038 19.1692 22.6689 17.6299 22.6654 16.0395C22.6654 12.3528 19.6654 9.3595 15.9987 9.3595Z" fill="white"/>
</svg>
