<svg width="32" height="32" viewBox="0 0 32 32" fill="none" xmlns="http://www.w3.org/2000/svg">
<rect x="0.346491" y="0.346613" width="31.307" height="31.307" rx="15.6535" fill="#92877B"/>
<rect x="0.346491" y="0.346613" width="31.307" height="31.307" rx="15.6535" stroke="#92877B" stroke-width="0.692982"/>
<path d="M13.5144 9.64795H19.1144C21.2477 9.64795 22.981 11.3813 22.981 13.5146V19.1146C22.981 20.1401 22.5737 21.1236 21.8485 21.8488C21.1234 22.5739 20.1399 22.9813 19.1144 22.9813H13.5144C11.381 22.9813 9.64771 21.2479 9.64771 19.1146V13.5146C9.64771 12.4891 10.0551 11.5056 10.7802 10.7805C11.5054 10.0553 12.4889 9.64795 13.5144 9.64795ZM13.381 10.9813C12.7445 10.9813 12.1341 11.2341 11.684 11.6842C11.2339 12.1343 10.981 12.7448 10.981 13.3813V19.2479C10.981 20.5746 12.0544 21.6479 13.381 21.6479H19.2477C19.8842 21.6479 20.4947 21.3951 20.9448 20.945C21.3948 20.4949 21.6477 19.8845 21.6477 19.2479V13.3813C21.6477 12.0546 20.5744 10.9813 19.2477 10.9813H13.381ZM19.8144 11.9813C20.0354 11.9813 20.2473 12.0691 20.4036 12.2254C20.5599 12.3816 20.6477 12.5936 20.6477 12.8146C20.6477 13.0356 20.5599 13.2476 20.4036 13.4039C20.2473 13.5602 20.0354 13.6479 19.8144 13.6479C19.5934 13.6479 19.3814 13.5602 19.2251 13.4039C19.0688 13.2476 18.981 13.0356 18.981 12.8146C18.981 12.5936 19.0688 12.3816 19.2251 12.2254C19.3814 12.0691 19.5934 11.9813 19.8144 11.9813ZM16.3144 12.9813C17.1984 12.9813 18.0463 13.3325 18.6714 13.9576C19.2965 14.5827 19.6477 15.4306 19.6477 16.3146C19.6477 17.1987 19.2965 18.0465 18.6714 18.6716C18.0463 19.2968 17.1984 19.6479 16.3144 19.6479C15.4303 19.6479 14.5825 19.2968 13.9573 18.6716C13.3322 18.0465 12.981 17.1987 12.981 16.3146C12.981 15.4306 13.3322 14.5827 13.9573 13.9576C14.5825 13.3325 15.4303 12.9813 16.3144 12.9813ZM16.3144 14.3146C15.7839 14.3146 15.2752 14.5253 14.9002 14.9004C14.5251 15.2755 14.3144 15.7842 14.3144 16.3146C14.3144 16.845 14.5251 17.3538 14.9002 17.7288C15.2752 18.1039 15.7839 18.3146 16.3144 18.3146C16.8448 18.3146 17.3535 18.1039 17.7286 17.7288C18.1037 17.3538 18.3144 16.845 18.3144 16.3146C18.3144 15.7842 18.1037 15.2755 17.7286 14.9004C17.3535 14.5253 16.8448 14.3146 16.3144 14.3146Z" fill="white"/>
</svg>
