<svg width="32" height="32" viewBox="0 0 32 32" fill="none" xmlns="http://www.w3.org/2000/svg">
<rect x="0.346491" y="0.346613" width="31.307" height="31.307" rx="15.6535" fill="#92877B"/>
<rect x="0.346491" y="0.346613" width="31.307" height="31.307" rx="15.6535" stroke="#92877B" stroke-width="0.692982"/>
<path d="M20.6667 10.0001C21.0203 10.0001 21.3594 10.1406 21.6095 10.3906C21.8595 10.6407 22 10.9798 22 11.3335V20.6668C22 21.0204 21.8595 21.3595 21.6095 21.6096C21.3594 21.8596 21.0203 22.0001 20.6667 22.0001H11.3333C10.9797 22.0001 10.6406 21.8596 10.3905 21.6096C10.1405 21.3595 10 21.0204 10 20.6668V11.3335C10 10.9798 10.1405 10.6407 10.3905 10.3906C10.6406 10.1406 10.9797 10.0001 11.3333 10.0001H20.6667ZM20.3333 20.3335V16.8001C20.3333 16.2237 20.1044 15.6709 19.6968 15.2633C19.2892 14.8558 18.7364 14.6268 18.16 14.6268C17.5933 14.6268 16.9333 14.9735 16.6133 15.4935V14.7535H14.7533V20.3335H16.6133V17.0468C16.6133 16.5335 17.0267 16.1135 17.54 16.1135C17.7875 16.1135 18.0249 16.2118 18.2 16.3868C18.375 16.5619 18.4733 16.7993 18.4733 17.0468V20.3335H20.3333ZM12.5867 13.7068C12.8837 13.7068 13.1686 13.5888 13.3786 13.3787C13.5887 13.1687 13.7067 12.8838 13.7067 12.5868C13.7067 11.9668 13.2067 11.4601 12.5867 11.4601C12.2879 11.4601 12.0013 11.5788 11.79 11.7901C11.5787 12.0014 11.46 12.288 11.46 12.5868C11.46 13.2068 11.9667 13.7068 12.5867 13.7068ZM13.5133 20.3335V14.7535H11.6667V20.3335H13.5133Z" fill="white"/>
</svg>
