<svg width="16" height="16" viewBox="0 0 16 16" fill="none" xmlns="http://www.w3.org/2000/svg">
<g clip-path="url(#clip0_448_3968)">
<path d="M6.10914 14.4627C5.44632 14.8909 4.65647 15.0776 3.8724 14.9912C3.08835 14.9048 2.35788 14.5507 1.80386 13.9883L1.31952 13.514C1.10717 13.2965 0.988281 13.0043 0.988281 12.7002C0.988281 12.3959 1.10717 12.1038 1.31952 11.8863L3.37529 9.84889C3.59067 9.63691 3.88056 9.51812 4.18254 9.51812C4.4845 9.51812 4.7744 9.63691 4.98977 9.84889C5.20696 10.0616 5.49865 10.1806 5.8024 10.1806C6.10615 10.1806 6.39782 10.0616 6.61502 9.84889L9.84398 6.61497C9.95169 6.50865 10.0372 6.38195 10.0956 6.24223C10.154 6.1025 10.1841 5.95256 10.1841 5.8011C10.1841 5.64963 10.154 5.49968 10.0956 5.35995C10.0372 5.22023 9.95169 5.09353 9.84398 4.98722C9.63232 4.77152 9.51372 4.48117 9.51372 4.17874C9.51372 3.8763 9.63232 3.58596 9.84398 3.37026L11.889 1.3221C12.1062 1.10943 12.3978 0.990356 12.7016 0.990356C13.0054 0.990356 13.297 1.10943 13.5143 1.3221L13.9879 1.80719C14.5493 2.36207 14.9028 3.09365 14.9891 3.87892C15.0754 4.66419 14.889 5.45525 14.4614 6.11909C12.2334 9.40771 9.39845 12.2396 6.10914 14.4627Z" stroke="#292929" stroke-linecap="round" stroke-linejoin="round"/>
</g>
<defs>
<clipPath id="clip0_448_3968">
<rect width="16" height="16" fill="white"/>
</clipPath>
</defs>
</svg>
