<svg width="77" height="57" viewBox="0 0 77 57" fill="none" xmlns="http://www.w3.org/2000/svg">
<path d="M35.6257 4.17801L30.5905 0C11.6343 10.7435 2.74863 22.9791 0.379106 36.7068C-1.39803 48.0471 3.04482 57 14.3 57C22.2972 57 29.9981 51.6283 31.7753 42.6754C33.2562 32.2304 27.3324 25.9633 19.9277 24.4712C22.8896 14.3246 35.3296 4.17801 35.6257 4.17801ZM61.0981 23.8744C64.3562 14.0262 76.2038 4.17801 76.5 4.17801L71.4648 0C52.5086 10.7435 43.6229 22.9791 41.2534 36.7068C39.4762 48.0471 43.9191 57 55.1743 57C63.1714 57 70.8724 51.6283 72.3533 42.6754C74.1305 32.2304 68.5029 25.3665 61.0981 23.8744Z" fill="#797572"/>
</svg>
